<?xml version="1.0" encoding="UTF-8"?> <svg xmlns="http://www.w3.org/2000/svg" viewBox="0 0 64.78 69.95"> <defs> <style>.cls-1{fill:#090a0a;}</style> </defs> <title>Ресурс 1</title> <g id="Слой_2" data-name="Слой 2"> <g id="Layer_1" data-name="Layer 1"> <path class="cls-1" d="M62.1,15.87A11.91,11.91,0,0,0,64.78,17c-1.32-1.77-2.94-3.24-4.29-5a19.42,19.42,0,0,0-4.16-3.94,13.51,13.51,0,0,0-3.59-1.87,29.34,29.34,0,0,0-3-.91,7.83,7.83,0,0,0-2.85-.28c-2.35.34-4.4,1.72-6.39,3a46.36,46.36,0,0,0-4.1,3.44c.27-.75.56-1.52.9-2.24,1-1.66,1.76-3.39,2.74-5a14.14,14.14,0,0,0,1-1.6A9.86,9.86,0,0,0,37.25.46,18.62,18.62,0,0,0,32,0a11,11,0,0,0-4.5,1,13.82,13.82,0,0,0-2,.87,5.28,5.28,0,0,0-2.1,2.09,16,16,0,0,1,3.34,2.32,30.81,30.81,0,0,1,2.58,2.87,16.81,16.81,0,0,1,1.74,3,10.44,10.44,0,0,1-1.81-1.25A27.39,27.39,0,0,0,25.53,8.4a4.49,4.49,0,0,0-1.27-.55A43.55,43.55,0,0,0,19,6.44a11.1,11.1,0,0,0-3.94,0,12.67,12.67,0,0,0-4,1A10.84,10.84,0,0,0,8.64,9a14.45,14.45,0,0,0-2.19,2.54,36.21,36.21,0,0,0-2.28,3.62,8.57,8.57,0,0,0-.76,1.55,36.77,36.77,0,0,0-1.49,3.68,2.82,2.82,0,0,0,0,1.12,9.13,9.13,0,0,1,1.25-1C4.3,19.85,5.34,19,6.46,18.25c.79-.45.51-1.52.59-2.28a6,6,0,0,1,.88,1.23c.5-.24,1-.49,1.5-.75a10.17,10.17,0,0,1,.21-1.67c.25.35.46.7.68,1.08.7-.28,1.35-.66,2-.9a17.19,17.19,0,0,1,3.54-.83A8.55,8.55,0,0,0,17.16,14,7.66,7.66,0,0,0,18,12.82c0,.47,0,.93,0,1.41h1A4.06,4.06,0,0,1,19.88,13a13.6,13.6,0,0,1-.3,1.41,6.71,6.71,0,0,0,1.23.88A12.15,12.15,0,0,1,22,14.11q-.12.69-.24,1.41c.85.16,1.68.44,2.52.63a9.32,9.32,0,0,1,2.81,1.34c-.88.05-1.77,0-2.64.06-3.84.62-7.79,1-11.39,2.64a19.88,19.88,0,0,0-2.73,1.27,24.16,24.16,0,0,0-3.95,3.2,18.52,18.52,0,0,0-2.23,2.53C3.42,28.27,3,29.5,2.32,30.64A19.81,19.81,0,0,0,1.44,33a19.64,19.64,0,0,0-.8,3A23,23,0,0,0,0,40.46a48.58,48.58,0,0,0,.46,6.27,5,5,0,0,0,.76,2.35c.69-.88,1.42-1.71,2.08-2.6,1.31-1.8,2.61-3.62,4-5.35a16.15,16.15,0,0,0,2.07-2.86.75.75,0,0,0,.09-.53c-.18-.65-.5-1.27-.7-1.92.59.21,1.17.51,1.75.77a31,31,0,0,1,3-2.89c-.7-1.11-1.62-2-2.31-3.13a38.36,38.36,0,0,1,3.71,1.23c.47.23,1.27.1,1.32-.54a17.72,17.72,0,0,0-.94-2.83,11.3,11.3,0,0,0,2,2.11c.89-.6,1.7-1.32,2.6-1.89a11.9,11.9,0,0,0,1-.7c0-.5-.05-1-.05-1.5a4.53,4.53,0,0,0,.84.69,2.63,2.63,0,0,0,1.23-.37c-.11-.39-.23-.8-.35-1.2.55.24,1.06.55,1.62.75.38.17.75-.12,1.05-.33,1-.76,2.11-1.39,3.1-2.17A21.07,21.07,0,0,1,31.25,22a50.62,50.62,0,0,0-3.37,14.22c0,1.49-.29,3-.33,4.49-.08,2.08-.18,4.16-.26,6.24-.09,1.54-.16,3.07-.1,4.61,0,1-.14,2,0,3.06.13,1.52.17,3,.25,4.55.17,1.8.2,3.61.48,5.4.12,1.13.25,2.27.38,3.4s.31,1.48,1.24,1.68a16,16,0,0,0,5.94,0c1-.2,1-.23.66-1.59s-.67-3-1-4.52c-.22-.91-.27-1.86-.5-2.78-.38-1.77-.44-3.58-.7-5.36-.14-1.22-.18-2.42-.33-3.64-.11-.81-.29-1.61-.38-2.42s-.09-1.82-.11-2.72c-.13-2.24-.35-4.45-.43-6.68,0-1.36-.06-2.73,0-4.08a58.3,58.3,0,0,1,1.86-14.82,22.58,22.58,0,0,1,2.87,1A41,41,0,0,1,42,24.29c.22-.55.42-1.12.67-1.66.17.58.29,1.2.41,1.8,1.16.38,2.23,1,3.39,1.38.22-.35.47-.7.72-1a13.82,13.82,0,0,1,.07,1.58,14.94,14.94,0,0,1,3.12,2.93c.43-.22.86-.48,1.28-.74a4.69,4.69,0,0,0-.15,1.66c.67,1,1.43,2,2,3a24.81,24.81,0,0,0,2.22-2.74,6.23,6.23,0,0,1-1.21,3.6c.33.65.71,1.27,1.1,1.89.47-.11,1-.25,1.44-.34a10.85,10.85,0,0,0-1,1.56A13,13,0,0,0,57,38.55c.87,1.41,1.71,2.84,2.61,4.23.58.86.9,1.87,1.51,2.72a14.36,14.36,0,0,0,.71-2.89,28.8,28.8,0,0,0-.37-8.18A40,40,0,0,0,60.16,29a25.07,25.07,0,0,0-1.67-3.73,24.46,24.46,0,0,0-1.9-3,23.1,23.1,0,0,0-2-2.12,17.09,17.09,0,0,0-2.46-1.78,16.16,16.16,0,0,0-2.3-1.36A26.62,26.62,0,0,0,46.24,16a28.49,28.49,0,0,0-3.64-.7,33.24,33.24,0,0,0-4.35,0c1-.36,2-.45,2.93-.78s2.27-.49,3.41-.72a2.13,2.13,0,0,1,.9.09c.2-.84.32-1.69.46-2.54.48.7.81,1.49,1.35,2.13a5.1,5.1,0,0,0,1.46,0,12,12,0,0,0,1.79-.2,10.58,10.58,0,0,0,.63-1.26c.06.4.13.81.18,1.22,1.41.06,2.78.33,4.2.3a16.71,16.71,0,0,1,.27-1.9c.58.8.89,1.78,1.45,2.61a2,2,0,0,0,1.29.48,10.72,10.72,0,0,0,1.4-1c-.09.49-.21,1-.33,1.47A12.75,12.75,0,0,1,62.1,15.87Z"></path> </g> </g> </svg> 