<svg width="922" height="964" viewBox="0 0 922 964" fill="none" xmlns="http://www.w3.org/2000/svg">
<rect x="328.5" y="65.5" width="270" height="141" stroke="white" stroke-width="5"/>
<path d="M327.674 67.8564C328.7 66.9317 328.781 65.3509 327.856 64.3256C326.932 63.3003 325.351 63.2188 324.326 64.1436L327.674 67.8564ZM324.326 64.1436L171.326 202.144L174.674 205.856L327.674 67.8564L324.326 64.1436Z" fill="white"/>
<path d="M175.5 204C175.5 202.619 174.381 201.5 173 201.5C171.619 201.5 170.5 202.619 170.5 204L175.5 204ZM170.5 204L170.5 886L175.5 886L175.5 204L170.5 204Z" fill="white"/>
<path d="M755 886L173 886" stroke="white" stroke-width="5" stroke-linecap="round"/>
<path d="M757.5 204C757.5 202.619 756.381 201.5 755 201.5C753.619 201.5 752.5 202.619 752.5 204L757.5 204ZM752.5 204L752.5 886L757.5 886L757.5 204L752.5 204Z" fill="white"/>
<path d="M601 66L755 204" stroke="white" stroke-width="5" stroke-linecap="round"/>
</svg>
