<svg width="948" height="964" viewBox="0 0 948 964" fill="none" xmlns="http://www.w3.org/2000/svg">
<rect x="30.5" y="24.5" width="887" height="915" stroke="white" stroke-width="5"/>
<path d="M402.5 725.096C402.5 727.528 404.471 729.5 406.904 729.5V729.5C408.23 729.5 409.485 728.902 410.322 727.873L414.175 723.13C415.055 722.047 415.8 720.862 416.394 719.599L416.911 718.501C418.616 714.879 419.5 710.924 419.5 706.92L419.5 698.368C419.5 695.144 418.98 691.94 417.96 688.881L416.608 684.824C415.872 682.616 414.881 680.5 413.655 678.521L409 671L405.85 665.911C403.641 662.343 400.709 659.279 397.242 656.915L396.22 656.218C393.101 654.092 389.609 652.573 385.927 651.742L379.263 650.237C377.094 649.747 374.878 649.5 372.655 649.5L348.5 649.5L324.813 652.57C322.611 652.856 320.447 653.385 318.362 654.148L301 660.5L259.5 671L212 688L167 708.5L125.5 729.5L79.9998 752L67.5388 760.307C63.9612 762.692 64.572 768.123 68.59 769.653V769.653C69.1915 769.883 69.8298 770 70.4734 770L301 770L412.774 766.095C414.294 766.042 415.5 764.794 415.5 763.272V763.272C415.5 761.945 414.576 760.797 413.281 760.513L396.997 756.938C395.668 756.647 394.367 756.24 393.108 755.724L375.5 748.5L365.293 743.891C361.797 742.311 358.636 740.076 355.981 737.307L353.812 735.044C350.327 731.406 347.813 726.95 346.504 722.086L345.913 719.891C345.307 717.64 345 715.319 345 712.988L345 712.302C345 706.917 346.805 701.64 350.076 697.362V697.362C351.017 696.132 352.085 694.984 353.246 693.959V693.959C357.598 690.119 363.202 688 369.006 688L370.75 688C373.895 688 377.018 688.522 379.992 689.544L380.717 689.793C387.659 692.18 393.472 697.05 397.037 703.467V703.467C398.34 705.812 399.319 708.321 399.948 710.928L402.3 720.673C402.433 721.222 402.5 721.786 402.5 722.351L402.5 725.096Z" fill="white"/>
<path fill-rule="evenodd" clip-rule="evenodd" d="M628.5 641.5C626.114 645.376 621.505 647.277 617.081 646.209L610 644.5L603.54 642.654C600.86 641.888 598.086 641.5 595.298 641.5L586.683 641.5C580.703 641.5 574.863 643.318 569.94 646.713L568.976 647.379C565.07 650.072 561.997 653.806 560.106 658.157V658.157C558.717 661.351 558 664.798 558 668.281L558 683.156C558 689.859 560.244 696.368 564.375 701.646L565.189 702.686C566.393 704.225 567.745 705.643 569.226 706.919L576.873 713.511C579.926 716.143 583.479 718.133 587.318 719.362L594 721.5L600.509 723.67C603.152 724.551 605.92 725 608.707 725L609.237 725C618.611 725 627.201 730.233 631.5 738.563V738.563C632.165 739.852 632.717 741.196 633.15 742.581L637.5 756.5L647.772 778.278C649.246 781.402 651.249 784.249 653.692 786.692L667.963 800.963C669.648 802.648 671.533 804.12 673.577 805.346V805.346C678.107 808.064 683.291 809.5 688.573 809.5L694 809.5L704.5 809.5L741.419 809.5C750.625 809.5 759.321 805.273 765.008 798.035L767 795.5L778.5 776.5L791 753.5L800.5 729.5L803.943 716.876C804.644 714.303 805 711.649 805 708.982L805 687.212C805 683.443 804.234 679.714 802.75 676.25L801.983 674.46C801.004 672.177 800.5 669.719 800.5 667.236L800.5 662.01C800.5 660.096 801.319 658.272 802.75 657V657C804.181 655.728 805 653.904 805 651.99L805 647.607C805 645.554 804.616 643.519 803.868 641.607L801.919 636.625C800.977 634.219 799.728 631.944 798.203 629.857L796.082 626.955C792.761 622.41 788.228 618.891 783.002 616.801L777.042 614.417C774.69 613.476 772.228 612.837 769.716 612.515L754 610.5L709.5 610.5L668.952 610.5C663.111 610.5 657.397 612.205 652.511 615.406L649.176 617.592C646.738 619.189 644.546 621.132 642.669 623.361L637.5 629.5L628.5 641.5V641.5ZM743.5 663L725.506 666.072C723.838 666.357 722.149 666.5 720.457 666.5L692.286 666.5C689.443 666.5 686.615 666.096 683.886 665.3L678.597 663.757C676.869 663.253 675.19 662.595 673.58 661.79L663.944 656.972C661.334 655.667 658.971 653.92 656.959 651.807L654.989 649.739C651.786 646.376 650 641.909 650 637.265L650 636.647C650 632.084 651.873 627.721 655.181 624.578V624.578C658.275 621.639 662.379 620 666.646 620L723 620L757.204 620C759.725 620 762.235 620.318 764.676 620.945L776.285 623.93C777.749 624.307 779.131 624.951 780.361 625.829V625.829C783.586 628.133 785.5 631.852 785.5 635.815L785.5 637.811C785.5 642.094 783.766 646.234 780.737 649.263V649.263C779.269 650.731 777.52 651.92 775.612 652.738L763.491 657.932C761.833 658.643 760.116 659.202 758.358 659.604L743.5 663ZM624.5 695.632C624.5 697.198 624.214 698.75 623.657 700.213V700.213C621.756 705.203 616.971 708.5 611.632 708.5L603.817 708.5C600.962 708.5 598.128 707.995 595.449 707.007L592.221 705.818C590.743 705.274 589.309 704.613 587.934 703.843L585.303 702.37C580.212 699.519 576.062 695.245 573.363 690.071L572.881 689.146C571.962 687.386 571.221 685.54 570.668 683.634L569.415 679.318C567.847 673.918 568.067 668.155 570.041 662.89L570.66 661.239C571.217 659.756 572.004 658.37 572.994 657.133V657.133C575.842 653.573 580.154 651.5 584.714 651.5L591.527 651.5C593.172 651.5 594.816 651.639 596.438 651.916L610.087 654.247C612.981 654.741 615.703 655.962 617.996 657.797V657.797C622.107 661.086 624.5 666.065 624.5 671.329L624.5 678.5L624.5 695.632Z" fill="white"/>
<path d="M532.775 294.295C529.951 299.337 533.564 305.561 539.342 305.61L871.85 308.46C874.412 308.482 876.5 306.411 876.5 303.85V303.85C876.5 302.103 875.513 300.507 873.951 299.726L860.5 293L840 285L812.506 276.887C810.507 276.297 808.576 275.501 806.742 274.511L790.473 265.726C786.558 263.612 783.26 260.516 780.902 256.743L780.643 256.33C778.262 252.52 777 248.118 777 243.626V243.626C777 238.976 778.352 234.426 780.892 230.532L783.318 226.812C784.105 225.606 784.994 224.471 785.976 223.419V223.419C789.566 219.572 794.282 216.959 799.447 215.955L808.73 214.15C809.242 214.05 809.763 214 810.284 214L819.362 214C821.986 214 823.551 211.076 822.095 208.893V208.893C821.708 208.313 821.147 207.871 820.493 207.631L806.5 202.5L791.5 198.5L771.605 194.963C769.872 194.655 768.115 194.5 766.354 194.5L741.5 194.5L700.496 194.5C697.844 194.5 695.203 194.852 692.644 195.546L669.526 201.815C667.845 202.271 666.207 202.872 664.631 203.612L642.5 214L625.5 225L600.5 244.5L572 267.5L543.5 285L534.659 292.073C533.893 292.685 533.254 293.44 532.775 294.295V294.295Z" fill="white"/>
<path d="M108.5 283C104.703 284.898 105.541 290.544 109.725 291.258L116.447 292.406C116.815 292.468 117.188 292.5 117.561 292.5L149 292.5L190.5 292.5L210 292.5L242.5 295.5L272 295.5L294.5 295.5L322.5 295.5L376 295.5L389.56 295.5C393.157 295.5 396.725 294.853 400.094 293.59L402.163 292.814C402.72 292.605 403.258 292.349 403.772 292.049L404.936 291.371C407.453 289.903 409 287.209 409 284.295V284.295C409 280.822 406.81 277.727 403.535 276.571L392 272.5L372.436 267.089C369.824 266.366 367.322 265.293 364.998 263.899L351 255.5L341.835 248.7C337.682 245.619 334.396 241.517 332.296 236.791L332.086 236.318C330.381 232.482 329.5 228.331 329.5 224.134L329.5 217.069C329.5 215.701 329.254 214.344 328.773 213.062V213.062C327.363 209.302 324.081 206.56 320.13 205.842L312.263 204.411C310.757 204.138 309.23 204 307.7 204L300.971 204C298.995 204 297.024 204.195 295.087 204.583L283 207L267.5 212L254.949 214.353C252.657 214.783 250.424 215.478 248.293 216.425L242.5 219L221 226L199 234.5L181 244L154.5 255.5L136.363 264.79C134.791 265.595 133.293 266.538 131.886 267.606L121.5 275.5L108.5 283V283Z" fill="white"/>
<path d="M476.5 22L476.5 941.5M409 671L413.655 678.521C414.881 680.5 415.872 682.616 416.608 684.824L417.96 688.881C418.98 691.94 419.5 695.144 419.5 698.368L419.5 706.92C419.5 710.924 418.616 714.879 416.911 718.501L416.394 719.599C415.8 720.862 415.055 722.047 414.175 723.13L410.322 727.873C409.485 728.902 408.23 729.5 406.904 729.5V729.5C404.471 729.5 402.5 727.528 402.5 725.096L402.5 722.351C402.5 721.786 402.433 721.222 402.3 720.673L399.948 710.928C399.319 708.321 398.34 705.812 397.037 703.467V703.467C393.472 697.05 387.659 692.18 380.717 689.793L379.992 689.544C377.018 688.522 373.895 688 370.75 688L369.006 688C363.202 688 357.598 690.119 353.246 693.959V693.959C352.085 694.984 351.017 696.132 350.076 697.362V697.362C346.805 701.64 345 706.917 345 712.302L345 712.988C345 715.319 345.307 717.64 345.913 719.891L346.504 722.086C347.813 726.95 350.327 731.406 353.812 735.044L355.981 737.307C358.636 740.076 361.797 742.311 365.293 743.891L375.5 748.5L393.108 755.724C394.367 756.24 395.668 756.647 396.997 756.938L413.281 760.513C414.576 760.797 415.5 761.945 415.5 763.272V763.272C415.5 764.794 414.294 766.042 412.774 766.095L301 770L70.4734 770C69.8298 770 69.1915 769.883 68.59 769.653V769.653C64.572 768.123 63.9612 762.692 67.5388 760.307L79.9998 752L125.5 729.5L167 708.5L212 688L259.5 671L301 660.5L318.362 654.148C320.447 653.385 322.611 652.856 324.813 652.57L348.5 649.5L372.655 649.5C374.878 649.5 377.094 649.747 379.263 650.237L385.927 651.742C389.609 652.573 393.101 654.092 396.22 656.218L397.242 656.915C400.709 659.279 403.641 662.343 405.85 665.911L409 671ZM743.5 663L725.506 666.072C723.838 666.357 722.149 666.5 720.457 666.5L692.286 666.5C689.443 666.5 686.615 666.096 683.886 665.3L678.597 663.757C676.869 663.253 675.19 662.595 673.58 661.79L663.944 656.972C661.334 655.667 658.971 653.92 656.959 651.807L654.989 649.739C651.786 646.376 650 641.909 650 637.265L650 636.647C650 632.084 651.873 627.721 655.181 624.578V624.578C658.275 621.639 662.379 620 666.646 620L723 620L757.204 620C759.725 620 762.235 620.318 764.676 620.945L776.285 623.93C777.749 624.307 779.131 624.951 780.361 625.829V625.829C783.586 628.133 785.5 631.852 785.5 635.815L785.5 637.811C785.5 642.094 783.766 646.234 780.737 649.263V649.263C779.269 650.731 777.52 651.92 775.612 652.738L763.491 657.932C761.833 658.643 760.116 659.202 758.358 659.604L743.5 663ZM610 644.5L617.081 646.209C621.505 647.277 626.114 645.376 628.5 641.5V641.5L637.5 629.5L642.669 623.361C644.546 621.132 646.738 619.189 649.176 617.592L652.511 615.406C657.397 612.205 663.111 610.5 668.952 610.5L709.5 610.5L754 610.5L769.716 612.515C772.228 612.837 774.69 613.476 777.042 614.417L783.002 616.801C788.228 618.891 792.761 622.41 796.082 626.955L798.203 629.857C799.728 631.944 800.977 634.219 801.919 636.625L803.868 641.607C804.616 643.519 805 645.554 805 647.607L805 651.99C805 653.904 804.181 655.728 802.75 657V657C801.319 658.272 800.5 660.096 800.5 662.01L800.5 667.236C800.5 669.719 801.004 672.177 801.983 674.46L802.75 676.25C804.234 679.714 805 683.443 805 687.212L805 708.982C805 711.649 804.644 714.303 803.943 716.876L800.5 729.5L791 753.5L778.5 776.5L767 795.5L765.008 798.035C759.321 805.273 750.625 809.5 741.419 809.5L704.5 809.5L694 809.5L688.573 809.5C683.291 809.5 678.107 808.064 673.577 805.346V805.346C671.533 804.12 669.648 802.648 667.963 800.963L653.692 786.692C651.249 784.249 649.246 781.402 647.772 778.278L637.5 756.5L633.15 742.581C632.717 741.196 632.165 739.852 631.5 738.563V738.563C627.201 730.233 618.611 725 609.237 725L608.707 725C605.92 725 603.152 724.551 600.509 723.67L594 721.5L587.318 719.362C583.479 718.133 579.926 716.143 576.873 713.511L569.226 706.919C567.745 705.643 566.393 704.225 565.189 702.686L564.375 701.646C560.244 696.368 558 689.859 558 683.156L558 668.281C558 664.798 558.717 661.351 560.106 658.157V658.157C561.997 653.806 565.07 650.072 568.976 647.379L569.94 646.713C574.863 643.318 580.703 641.5 586.683 641.5L595.298 641.5C598.086 641.5 600.86 641.888 603.54 642.654L610 644.5ZM624.5 678.5L624.5 695.632C624.5 697.198 624.214 698.75 623.657 700.213V700.213C621.756 705.203 616.971 708.5 611.632 708.5L603.817 708.5C600.962 708.5 598.128 707.995 595.449 707.007L592.221 705.818C590.743 705.274 589.309 704.613 587.934 703.843L585.303 702.37C580.212 699.519 576.062 695.245 573.363 690.071L572.881 689.146C571.962 687.386 571.221 685.54 570.668 683.634L569.415 679.318C567.847 673.918 568.067 668.155 570.041 662.89L570.66 661.239C571.217 659.756 572.004 658.37 572.994 657.133V657.133C575.842 653.573 580.154 651.5 584.714 651.5L591.527 651.5C593.172 651.5 594.816 651.639 596.438 651.916L610.087 654.247C612.981 654.741 615.703 655.962 617.996 657.797V657.797C622.107 661.086 624.5 666.065 624.5 671.329L624.5 678.5ZM860.5 293L873.951 299.726C875.513 300.507 876.5 302.103 876.5 303.85V303.85C876.5 306.411 874.412 308.482 871.85 308.46L539.342 305.61C533.564 305.561 529.951 299.337 532.775 294.295V294.295C533.254 293.44 533.893 292.685 534.659 292.073L543.5 285L572 267.5L600.5 244.5L625.5 225L642.5 214L664.631 203.612C666.207 202.872 667.845 202.271 669.526 201.815L692.644 195.546C695.203 194.852 697.844 194.5 700.496 194.5L741.5 194.5L766.354 194.5C768.115 194.5 769.872 194.655 771.605 194.963L791.5 198.5L806.5 202.5L820.493 207.631C821.147 207.871 821.708 208.313 822.095 208.893V208.893C823.551 211.076 821.986 214 819.362 214L810.284 214C809.763 214 809.242 214.05 808.73 214.15L799.447 215.955C794.282 216.959 789.566 219.572 785.976 223.419V223.419C784.994 224.471 784.105 225.606 783.318 226.812L780.892 230.532C778.352 234.426 777 238.976 777 243.626V243.626C777 248.118 778.262 252.52 780.643 256.33L780.902 256.743C783.26 260.516 786.558 263.612 790.473 265.726L806.742 274.511C808.576 275.501 810.507 276.297 812.506 276.887L840 285L860.5 293ZM149 292.5L117.561 292.5C117.188 292.5 116.815 292.468 116.447 292.406L109.725 291.258C105.541 290.544 104.703 284.898 108.5 283V283L121.5 275.5L131.886 267.606C133.293 266.538 134.791 265.595 136.363 264.79L154.5 255.5L181 244L199 234.5L221 226L242.5 219L248.293 216.425C250.424 215.478 252.657 214.783 254.949 214.353L267.5 212L283 207L295.087 204.583C297.024 204.195 298.995 204 300.971 204L307.7 204C309.23 204 310.757 204.138 312.263 204.411L320.13 205.842C324.081 206.56 327.363 209.302 328.773 213.062V213.062C329.254 214.344 329.5 215.701 329.5 217.069L329.5 224.134C329.5 228.331 330.381 232.482 332.086 236.318L332.296 236.791C334.396 241.517 337.682 245.619 341.835 248.7L351 255.5L364.998 263.899C367.322 265.293 369.824 266.366 372.436 267.089L392 272.5L403.535 276.571C406.81 277.727 409 280.822 409 284.295V284.295C409 287.209 407.453 289.903 404.936 291.371L403.772 292.049C403.258 292.349 402.72 292.605 402.163 292.814L400.094 293.59C396.725 294.853 393.157 295.5 389.56 295.5L376 295.5L322.5 295.5L294.5 295.5L272 295.5L242.5 295.5L210 292.5L190.5 292.5L149 292.5Z" stroke="white" stroke-width="5"/>
<path d="M918 481L30 481" stroke="white" stroke-width="5"/>
</svg>
